# xmcd
#
# Track frame offsets: 
#        150
#        12941
#        28395
#        46584
#        61652
#        74754
#        95153
#        109281
#        121724
#        139846
#        156868
#        174071
#        190311
#        215539
#        229335
#        246528
#        261208
#
# Disc length: 3673 seconds
#
# Revision: 3
# Processed by: cddbd v1.5.2PL0 Copyright (c) Steve Scherf et al.
# Submitted via: ExactAudioCopy v0.99pb5
#
DISCID=f70e5711
DTITLE=Various Artist - Pure... Country Stars - CD 3
DYEAR=2014
DGENRE=Country
TTITLE0=Gretchen Wilson - California girls
TTITLE1=Martina McBride - Independence day
TTITLE2=Mary Chapin Carpenter - He thinks he'll keep her
TTITLE3=Rosanne Cash - I don't know why you don't want me
TTITLE4=Joy Lynn White - Tonight the heartache's on me
TTITLE5=Lari White - Now I know
TTITLE6=Pam Tillis - Shake the sugar tree
TTITLE7=Danni Leigh - Honey I do
TTITLE8=Mindy McCready - You'll never know
TTITLE9=Kellie Pickler - Best days of your life
TTITLE10=Carolyn Dawn Johnson - Simple life
TTITLE11=Kinleys - Please
TTITLE12=Sara Evans - Born to fly
TTITLE13=Patty Loveless - Here I am
TTITLE14=K.T. Oslin - Come next Monday
TTITLE15=Pistol Annies - Hell on heels
TTITLE16=Miranda Lambert - Gunpowder and lead
EXTD=
EXTT0=
EXTT1=
EXTT2=
EXTT3=
EXTT4=
EXTT5=
EXTT6=
EXTT7=
EXTT8=
EXTT9=
EXTT10=
EXTT11=
EXTT12=
EXTT13=
EXTT14=
EXTT15=
EXTT16=
PLAYORDER=
